# xmcd
#
# Track frame offsets:
#	150
#	28062
#	51345
#	72444
#	96946
#	124358
#	147217
#	170105
#	195725
#	215655
#	236432
#
# Disc length: 3396 seconds
#
# Revision: 1
# Processed by: cddbd v1.5.2PL0 Copyright (c) Steve Scherf et al.
# Submitted via: audiograbber 1.83.01
#
DISCID=ae0d420b
DTITLE=Bryce Janey - Delta Road
DYEAR=2015
DGENRE=
TTITLE0=Keep Marchin' On
TTITLE1=The Old Guitar
TTITLE2=Delta Road
TTITLE3=04. Shake The Walls (With Foot Stompin' Music)
TTITLE4=Feel Like A Stranger
TTITLE5=Better Off The Blues
TTITLE6=Lonesome Highway
TTITLE7=World Of Trouble
TTITLE8=Same Old Thing
TTITLE9=Time Doesn't Wait
TTITLE10=Hellhound On My Trail
EXTD=
EXTT0=
EXTT1=
EXTT2=
EXTT3=
EXTT4=
EXTT5=
EXTT6=
EXTT7=
EXTT8=
EXTT9=
EXTT10=
PLAYORDER=
